<?xml version="1.0" encoding="utf-8"?>
<!-- Generator: Adobe Illustrator 20.1.0, SVG Export Plug-In . SVG Version: 6.00 Build 0)  -->
<svg version="1.1" id="Layer_1" xmlns="http://www.w3.org/2000/svg" xmlns:xlink="http://www.w3.org/1999/xlink" x="0px" y="0px"
	 viewBox="0 0 100 100" style="enable-background:new 0 0 100 100;" xml:space="preserve">
<style type="text/css">
	.st0{display:none;fill:#F68C43;}
	.st1{display:none;fill:#F0566F;}
	.st2{display:none;fill:#FFFFFF;}
	.st3{display:none;fill:#FEE36F;}
	.st4{fill:#136296;}
	.st5{display:none;}
	.st6{display:inline;fill:#DB742B;}
</style>
<g>
	<path class="st0" d="M19.6,28.7v15.6c0,3,2.4,5.4,5.4,5.4h20.8v-8h8.3v8H75c3,0,5.4-2.4,5.4-5.4V28.7H19.6z"/>
	<path class="st0" d="M54.1,49.7V62h-8.3V49.7H25.1v38.1c0,3.7,3,6.7,6.8,6.7h36.2c3.7,0,6.8-3,6.8-6.7V49.7H54.1z"/>
	<path class="st1" d="M81.2,5.5H18.8c-4,0-7.3,3.3-7.3,7.3v8.7c0,4,3.3,7.3,7.3,7.3h62.4c4,0,7.3-3.3,7.3-7.3v-8.7
		C88.5,8.8,85.2,5.5,81.2,5.5z"/>
	<rect x="45.9" y="41.6" class="st2" width="8.3" height="20.4"/>
	<path class="st1" d="M20.3,60.3c-2.5,0-4.5,2-4.5,4.5v19.3c0,2.5,2,4.5,4.5,4.5h4.9V60.3L20.3,60.3L20.3,60.3z"/>
	<path class="st1" d="M79.7,60.3c2.5,0,4.5,2,4.5,4.5v19.3c0,2.5-2,4.5-4.5,4.5h-4.9V60.3L79.7,60.3L79.7,60.3z"/>
	<rect x="27.1" y="5.5" class="st3" width="6.5" height="23.2"/>
	<rect x="66.4" y="5.5" class="st3" width="6.5" height="23.2"/>
	<path class="st3" d="M54.1,55.7V62h-8.3v-6.3H30.3v27.5c0,2.9,2.4,5.3,5.4,5.3h28.7c3,0,5.4-2.4,5.4-5.3V55.7H54.1z"/>
	<g>
		<path class="st4" d="M75,50.2H54.1c-0.3,0-0.5-0.2-0.5-0.5v-7.5h-7.2v7.5c0,0.3-0.2,0.5-0.5,0.5H25c-3.3,0-5.9-2.6-5.9-5.9V28.7
			c0-0.3,0.2-0.5,0.5-0.5h60.8c0.3,0,0.5,0.2,0.5,0.5v15.6C80.9,47.5,78.2,50.2,75,50.2z M54.6,49.2H75c2.7,0,4.9-2.2,4.9-4.9V29.2
			H20.1v15.1c0,2.7,2.2,4.9,4.9,4.9h20.3v-7.5c0-0.3,0.2-0.5,0.5-0.5h8.3c0.3,0,0.5,0.2,0.5,0.5C54.6,41.6,54.6,49.2,54.6,49.2z"/>
	</g>
	<g class="st5">
		<rect x="54.1" y="49.7" class="st6" width="20.7" height="1.4"/>
		<rect x="25.1" y="49.7" class="st6" width="20.7" height="1.4"/>
	</g>
	<g>
		<path class="st4" d="M68.1,95H31.9c-4,0-7.3-3.2-7.3-7.2V49.7c0-0.3,0.2-0.5,0.5-0.5h20.7c0.3,0,0.5,0.2,0.5,0.5v11.8h7.2V49.7
			c0-0.3,0.2-0.5,0.5-0.5h20.7c0.3,0,0.5,0.2,0.5,0.5v38.1C75.4,91.8,72.1,95,68.1,95z M25.6,50.2v37.6c0,3.4,2.8,6.2,6.3,6.2h36.2
			c3.4,0,6.3-2.8,6.3-6.2V50.2H54.6V62c0,0.3-0.2,0.5-0.5,0.5h-8.3c-0.3,0-0.5-0.2-0.5-0.5V50.2H25.6z"/>
	</g>
	<g>
		<path class="st4" d="M81.2,29.2H18.8c-4.3,0-7.8-3.5-7.8-7.8v-8.7C11,8.5,14.5,5,18.8,5h62.4c4.3,0,7.8,3.5,7.8,7.8v8.7
			C89,25.7,85.5,29.2,81.2,29.2z M18.8,6C15.1,6,12,9,12,12.8v8.7c0,3.7,3,6.8,6.8,6.8h62.4c3.7,0,6.8-3,6.8-6.8v-8.7
			C88,9,84.9,6,81.2,6H18.8z"/>
	</g>
	<g>
		<path class="st4" d="M54.1,62.5h-8.3c-0.3,0-0.5-0.2-0.5-0.5V41.6c0-0.3,0.2-0.5,0.5-0.5h8.3c0.3,0,0.5,0.2,0.5,0.5V62
			C54.6,62.3,54.4,62.5,54.1,62.5z M46.4,61.5h7.2V42.1h-7.2V61.5z"/>
	</g>
	<g>
		<path class="st4" d="M25.1,89.1h-4.9c-2.8,0-5-2.2-5-5V64.8c0-2.8,2.3-5,5-5h4.9c0.3,0,0.5,0.2,0.5,0.5v28.3
			C25.6,88.9,25.4,89.1,25.1,89.1z M20.3,60.8c-2.2,0-4,1.8-4,4v19.3c0,2.2,1.8,4,4,4h4.4V60.8H20.3z"/>
	</g>
	<g>
		<path class="st4" d="M79.7,89.1h-4.9c-0.3,0-0.5-0.2-0.5-0.5V60.3c0-0.3,0.2-0.5,0.5-0.5h4.9c2.8,0,5,2.2,5,5v19.3
			C84.8,86.9,82.5,89.1,79.7,89.1z M75.4,88.1h4.4c2.2,0,4-1.8,4-4V64.8c0-2.2-1.8-4-4-4h-4.4V88.1z"/>
	</g>
	<g>
		<path class="st4" d="M33.6,29.2h-6.5c-0.3,0-0.5-0.2-0.5-0.5V5.5c0-0.3,0.2-0.5,0.5-0.5h6.5c0.3,0,0.5,0.2,0.5,0.5v23.2
			C34.1,29,33.9,29.2,33.6,29.2z M27.6,28.2h5.5V6h-5.5C27.6,6,27.6,28.2,27.6,28.2z"/>
	</g>
	<g>
		<path class="st4" d="M72.9,29.2h-6.5c-0.3,0-0.5-0.2-0.5-0.5V5.5c0-0.3,0.2-0.5,0.5-0.5h6.5c0.3,0,0.5,0.2,0.5,0.5v23.2
			C73.4,29,73.2,29.2,72.9,29.2z M66.9,28.2h5.5V6h-5.5V28.2z"/>
	</g>
	<g>
		<path class="st4" d="M69.6,77.5H30.4c-0.3,0-0.5-0.2-0.5-0.5s0.2-0.5,0.5-0.5h39.3c0.3,0,0.5,0.2,0.5,0.5S69.9,77.5,69.6,77.5z"/>
	</g>
	<g>
		<g>
			<path class="st4" d="M54.1,58c-0.3,0-0.5-0.2-0.5-0.5v-1.8c0-0.3,0.2-0.5,0.5-0.5h1.8c0.3,0,0.5,0.2,0.5,0.5
				c0,0.3-0.2,0.5-0.5,0.5h-1.3v1.3C54.6,57.8,54.4,58,54.1,58z"/>
		</g>
		<g>
			<path class="st4" d="M54.1,62.5h-1.8c-0.3,0-0.5-0.2-0.5-0.5s0.2-0.5,0.5-0.5h1.3v-1.3c0-0.3,0.2-0.5,0.5-0.5s0.5,0.2,0.5,0.5V62
				C54.6,62.3,54.4,62.5,54.1,62.5z"/>
		</g>
		<g>
			<path class="st4" d="M47.6,62.5h-1.8c-0.3,0-0.5-0.2-0.5-0.5v-1.8c0-0.3,0.2-0.5,0.5-0.5s0.5,0.2,0.5,0.5v1.3h1.3
				c0.3,0,0.5,0.2,0.5,0.5S47.9,62.5,47.6,62.5z"/>
		</g>
		<g>
			<path class="st4" d="M45.9,58c-0.3,0-0.5-0.2-0.5-0.5v-1.3h-1.3c-0.3,0-0.5-0.2-0.5-0.5c0-0.3,0.2-0.5,0.5-0.5h1.8
				c0.3,0,0.5,0.2,0.5,0.5v1.8C46.4,57.8,46.2,58,45.9,58z"/>
		</g>
		<g>
			<path class="st4" d="M40.1,56.2h-4c-0.3,0-0.5-0.2-0.5-0.5c0-0.3,0.2-0.5,0.5-0.5h4c0.3,0,0.5,0.2,0.5,0.5
				C40.6,56,40.4,56.2,40.1,56.2z"/>
		</g>
		<g>
			<path class="st4" d="M30.3,58c-0.3,0-0.5-0.2-0.5-0.5v-1.8c0-0.3,0.2-0.5,0.5-0.5h1.8c0.3,0,0.5,0.2,0.5,0.5
				c0,0.3-0.2,0.5-0.5,0.5h-1.3v1.3C30.8,57.8,30.6,58,30.3,58z"/>
		</g>
		<g>
			<path class="st4" d="M64.4,89.1h-1.8c-0.3,0-0.5-0.2-0.5-0.5c0-0.3,0.2-0.5,0.5-0.5h1.8c0.6,0,1.1-0.1,1.6-0.3
				c0.3-0.1,0.6,0,0.7,0.3s0,0.6-0.3,0.6C65.7,89,65,89.1,64.4,89.1z M59,89.1h-3.6c-0.3,0-0.5-0.2-0.5-0.5c0-0.3,0.2-0.5,0.5-0.5
				H59c0.3,0,0.5,0.2,0.5,0.5S59.3,89.1,59,89.1z M51.8,89.1h-3.6c-0.3,0-0.5-0.2-0.5-0.5c0-0.3,0.2-0.5,0.5-0.5h3.6
				c0.3,0,0.5,0.2,0.5,0.5C52.3,88.9,52.1,89.1,51.8,89.1z M44.6,89.1H41c-0.3,0-0.5-0.2-0.5-0.5c0-0.3,0.2-0.5,0.5-0.5h3.6
				c0.3,0,0.5,0.2,0.5,0.5S44.9,89.1,44.6,89.1z M37.4,89.1h-1.7c-0.7,0-1.4-0.1-2-0.3c-0.3-0.1-0.4-0.4-0.3-0.6
				c0.1-0.3,0.4-0.4,0.7-0.3c0.5,0.2,1.1,0.3,1.6,0.3h1.7c0.3,0,0.5,0.2,0.5,0.5C37.9,88.9,37.7,89.1,37.4,89.1z M68.9,86.6
				c-0.1,0-0.2,0-0.3-0.1c-0.2-0.1-0.3-0.5-0.2-0.7c0.5-0.8,0.7-1.6,0.7-2.5v-0.6c0-0.3,0.2-0.5,0.5-0.5s0.5,0.2,0.5,0.5v0.6
				c0,1.1-0.3,2.2-0.9,3.1C69.3,86.5,69.1,86.6,68.9,86.6z M31.1,86.6c-0.2,0-0.3-0.1-0.4-0.2c-0.6-0.9-0.9-2-0.9-3.1v-0.6
				c0-0.3,0.2-0.5,0.5-0.5s0.5,0.2,0.5,0.5v0.6c0,0.9,0.2,1.8,0.7,2.5c0.1,0.2,0.1,0.5-0.2,0.7C31.3,86.5,31.2,86.6,31.1,86.6z
				 M69.7,79.5c-0.3,0-0.5-0.2-0.5-0.5v-3.6c0-0.3,0.2-0.5,0.5-0.5s0.5,0.2,0.5,0.5V79C70.2,79.3,70,79.5,69.7,79.5z M30.3,79.5
				c-0.3,0-0.5-0.2-0.5-0.5v-3.6c0-0.3,0.2-0.5,0.5-0.5s0.5,0.2,0.5,0.5V79C30.8,79.3,30.6,79.5,30.3,79.5z M69.7,72.4
				c-0.3,0-0.5-0.2-0.5-0.5v-3.6c0-0.3,0.2-0.5,0.5-0.5s0.5,0.2,0.5,0.5v3.6C70.2,72.1,70,72.4,69.7,72.4z M30.3,72.4
				c-0.3,0-0.5-0.2-0.5-0.5v-3.6c0-0.3,0.2-0.5,0.5-0.5s0.5,0.2,0.5,0.5v3.6C30.8,72.1,30.6,72.4,30.3,72.4z M69.7,65.2
				c-0.3,0-0.5-0.2-0.5-0.5v-3.6c0-0.3,0.2-0.5,0.5-0.5s0.5,0.2,0.5,0.5v3.6C70.2,65,70,65.2,69.7,65.2z M30.3,65.2
				c-0.3,0-0.5-0.2-0.5-0.5v-3.6c0-0.3,0.2-0.5,0.5-0.5s0.5,0.2,0.5,0.5v3.6C30.8,65,30.6,65.2,30.3,65.2z"/>
		</g>
		<g>
			<path class="st4" d="M69.7,58c-0.3,0-0.5-0.2-0.5-0.5v-1.3h-1.3c-0.3,0-0.5-0.2-0.5-0.5c0-0.3,0.2-0.5,0.5-0.5h1.8
				c0.3,0,0.5,0.2,0.5,0.5v1.8C70.2,57.8,70,58,69.7,58z"/>
		</g>
		<g>
			<path class="st4" d="M63.9,56.2h-4c-0.3,0-0.5-0.2-0.5-0.5c0-0.3,0.2-0.5,0.5-0.5h4c0.3,0,0.5,0.2,0.5,0.5
				C64.4,56,64.2,56.2,63.9,56.2z"/>
		</g>
	</g>
	<g>
		<path class="st4" d="M31.9,46.1h-4.3c-2,0-3.6-1.6-3.6-3.6v-3.7c0-0.3,0.2-0.5,0.5-0.5s0.5,0.2,0.5,0.5v3.7c0,1.4,1.1,2.5,2.6,2.5
			h4.3c0.3,0,0.5,0.2,0.5,0.5C32.4,45.9,32.2,46.1,31.9,46.1z"/>
	</g>
</g>
</svg>
