<?xml version="1.0" encoding="utf-8"?>
<!-- Generator: Adobe Illustrator 20.1.0, SVG Export Plug-In . SVG Version: 6.00 Build 0)  -->
<svg version="1.1" id="Layer_1" xmlns="http://www.w3.org/2000/svg" xmlns:xlink="http://www.w3.org/1999/xlink" x="0px" y="0px"
	 viewBox="0 0 100 100" style="enable-background:new 0 0 100 100;" xml:space="preserve">
<style type="text/css">
	.st0{display:none;fill:#F1B57D;}
	.st1{fill:#FFFFFF;}
	.st2{display:none;fill:#FEE36F;}
	.st3{fill:#136296;}
</style>
<g>
	<ellipse class="st0" cx="50" cy="50" rx="44.5" ry="44.5"/>
	<ellipse class="st1" cx="50" cy="50" rx="34.4" ry="34.4"/>
	<circle class="st1" cx="50" cy="50" r="1.8"/>
	<path class="st2" d="M50,48.2c0.5,0,0.9,0.2,1.2,0.5l2-2.3L50,31l-3.2,15.4l2,2.3C49.1,48.3,49.5,48.2,50,48.2z"/>
	<path class="st2" d="M51.2,51.4c-0.3,0.3-0.8,0.5-1.2,0.5s-0.9-0.2-1.2-0.5l-2,2.3L50,69l3.2-15.4L51.2,51.4z"/>
	<path class="st3" d="M50,5C25.2,5,5,25.2,5,50s20.2,45,45,45s45-20.2,45-45S74.8,5,50,5z M50,94C25.7,94,6,74.3,6,50
		C6,25.7,25.7,6,50,6s44,19.7,44,44C94,74.3,74.3,94,50,94z"/>
	<g>
		<path class="st1" d="M10.5,47C10.6,47,10.6,47,10.5,47c0.3,0,0.5-0.2,0.5-0.5c0.1-1.2,0.3-2.3,0.5-3.5c0-0.3-0.1-0.5-0.4-0.6
			c-0.3,0-0.5,0.1-0.6,0.4c-0.2,1.2-0.4,2.4-0.5,3.6C10.1,46.7,10.3,47,10.5,47z"/>
		<path class="st1" d="M11.7,40c0,0,0.1,0,0.1,0c0.2,0,0.4-0.1,0.5-0.4c0.3-1.1,0.7-2.2,1.1-3.3c0.1-0.3,0-0.6-0.3-0.7
			c-0.3-0.1-0.6,0-0.6,0.3c-0.4,1.1-0.8,2.3-1.1,3.4C11.3,39.7,11.4,39.9,11.7,40z"/>
		<path class="st1" d="M22.6,21.9c0.1,0,0.3,0,0.4-0.1c0.8-0.8,1.7-1.6,2.6-2.3c0.2-0.2,0.3-0.5,0.1-0.7s-0.5-0.3-0.7-0.1
			c-0.9,0.7-1.8,1.5-2.7,2.4c-0.2,0.2-0.2,0.5,0,0.7C22.4,21.9,22.5,21.9,22.6,21.9z"/>
		<path class="st1" d="M14.1,33.3c0.1,0,0.1,0,0.2,0c0.2,0,0.4-0.1,0.5-0.3c0.5-1.1,1.1-2.1,1.7-3.1c0.1-0.2,0.1-0.5-0.2-0.7
			c-0.2-0.1-0.6-0.1-0.7,0.2c-0.6,1-1.2,2.1-1.7,3.2C13.7,32.9,13.9,33.2,14.1,33.3z"/>
		<path class="st1" d="M18,27.3c0.2,0,0.3-0.1,0.4-0.2c0.7-0.9,1.4-1.9,2.2-2.7c0.2-0.2,0.2-0.5,0-0.7c-0.2-0.2-0.5-0.2-0.7,0
			c-0.8,0.9-1.5,1.8-2.2,2.8c-0.2,0.2-0.1,0.5,0.1,0.7C17.8,27.3,17.9,27.3,18,27.3z"/>
		<path class="st1" d="M10.6,54.1c0.3,0,0.5-0.3,0.5-0.5c-0.1-1.2-0.2-2.3-0.2-3.5c0-0.3-0.2-0.5-0.5-0.5l0,0
			c-0.3,0-0.5,0.2-0.5,0.5c0,1.2,0.1,2.4,0.2,3.6C10.1,53.9,10.3,54.1,10.6,54.1C10.6,54.1,10.6,54.1,10.6,54.1z"/>
		<path class="st1" d="M81.6,27c0.1,0.1,0.3,0.2,0.4,0.2c0.1,0,0.2,0,0.3-0.1c0.2-0.2,0.3-0.5,0.1-0.7c-0.7-1-1.5-1.9-2.2-2.8
			c-0.2-0.2-0.5-0.2-0.7,0s-0.2,0.5,0,0.7C80.1,25.1,80.9,26,81.6,27z"/>
		<path class="st1" d="M20.6,75.7c-0.2-0.2-0.5-0.2-0.7,0c-0.2,0.2-0.2,0.5,0,0.7c0.8,0.9,1.6,1.8,2.5,2.6c0.1,0.1,0.2,0.1,0.3,0.1
			c0.1,0,0.3-0.1,0.4-0.2c0.2-0.2,0.2-0.5,0-0.7C22.2,77.4,21.4,76.6,20.6,75.7z"/>
		<path class="st1" d="M11.6,57c-0.1-0.3-0.3-0.5-0.6-0.4c-0.3,0-0.5,0.3-0.4,0.6c0.2,1.2,0.5,2.4,0.8,3.5c0.1,0.2,0.3,0.4,0.5,0.4
			c0,0,0.1,0,0.1,0c0.3-0.1,0.4-0.4,0.4-0.6C12,59.3,11.8,58.2,11.6,57z"/>
		<path class="st1" d="M13.4,63.8c-0.1-0.3-0.4-0.4-0.7-0.3c-0.3,0.1-0.4,0.4-0.3,0.7c0.4,1.1,0.9,2.2,1.4,3.3
			c0.1,0.2,0.3,0.3,0.5,0.3c0.1,0,0.1,0,0.2-0.1c0.3-0.1,0.4-0.4,0.2-0.7C14.3,65.9,13.8,64.9,13.4,63.8z"/>
		<path class="st1" d="M16.5,70.1c-0.1-0.2-0.5-0.3-0.7-0.2c-0.2,0.1-0.3,0.5-0.2,0.7c0.6,1,1.3,2,2,3c0.1,0.1,0.3,0.2,0.4,0.2
			c0.1,0,0.2,0,0.3-0.1c0.2-0.2,0.3-0.5,0.1-0.7C17.7,72,17.1,71.1,16.5,70.1z"/>
		<path class="st1" d="M55.2,11.3c1.2,0.2,2.3,0.4,3.4,0.6c0,0,0.1,0,0.1,0c0.2,0,0.4-0.2,0.5-0.4c0.1-0.3-0.1-0.5-0.4-0.6
			c-1.2-0.3-2.4-0.5-3.5-0.6c-0.3,0-0.5,0.2-0.6,0.4C54.7,11,54.9,11.2,55.2,11.3z"/>
		<path class="st1" d="M85.2,33c0.1,0.2,0.3,0.3,0.5,0.3c0.1,0,0.1,0,0.2-0.1c0.3-0.1,0.4-0.4,0.2-0.7c-0.5-1.1-1.1-2.1-1.7-3.2
			c-0.1-0.2-0.5-0.3-0.7-0.2c-0.2,0.1-0.3,0.5-0.2,0.7C84.1,30.9,84.7,31.9,85.2,33z"/>
		<path class="st1" d="M62,12.8c1.1,0.4,2.2,0.8,3.3,1.2c0.1,0,0.1,0,0.2,0c0.2,0,0.4-0.1,0.5-0.3c0.1-0.3,0-0.6-0.3-0.7
			c-1.1-0.5-2.2-0.9-3.4-1.3c-0.3-0.1-0.6,0.1-0.6,0.3C61.6,12.5,61.7,12.7,62,12.8z"/>
		<path class="st1" d="M76.9,21.7c0.1,0.1,0.2,0.1,0.3,0.1c0.1,0,0.3-0.1,0.4-0.2c0.2-0.2,0.2-0.5,0-0.7c-0.9-0.8-1.8-1.6-2.7-2.4
			c-0.2-0.2-0.5-0.1-0.7,0.1c-0.2,0.2-0.1,0.5,0.1,0.7C75.2,20.1,76.1,20.9,76.9,21.7z"/>
		<path class="st1" d="M68.4,15.6c1,0.5,2,1.2,3,1.8c0.1,0.1,0.2,0.1,0.3,0.1c0.2,0,0.3-0.1,0.4-0.2c0.2-0.2,0.1-0.5-0.1-0.7
			c-1-0.7-2-1.3-3.1-1.8c-0.2-0.1-0.6,0-0.7,0.2C68.1,15.1,68.2,15.4,68.4,15.6z"/>
		<path class="st1" d="M52.2,10.5c0-0.3-0.2-0.5-0.5-0.5c-1.2-0.1-2.4,0-3.6,0c-0.3,0-0.5,0.2-0.5,0.5c0,0.3,0.2,0.5,0.5,0.5
			c0,0,0,0,0,0c1.1-0.1,2.3-0.1,3.5,0C51.9,11,52.2,10.8,52.2,10.5z"/>
		<path class="st1" d="M28.2,17.5c0.1,0,0.2,0,0.3-0.1c1-0.6,2-1.3,3-1.8c0.2-0.1,0.3-0.4,0.2-0.7c-0.1-0.2-0.4-0.3-0.7-0.2
			c-1,0.6-2.1,1.2-3.1,1.9c-0.2,0.2-0.3,0.5-0.1,0.7C27.8,17.4,28,17.5,28.2,17.5z"/>
		<path class="st1" d="M28.5,82.6c-1-0.6-1.9-1.3-2.8-2.1c-0.2-0.2-0.5-0.1-0.7,0.1c-0.2,0.2-0.1,0.5,0.1,0.7
			c0.9,0.7,1.9,1.5,2.9,2.1c0.1,0.1,0.2,0.1,0.3,0.1c0.2,0,0.3-0.1,0.4-0.2C28.8,83.1,28.7,82.8,28.5,82.6z"/>
		<path class="st1" d="M34.4,14.1c0.1,0,0.1,0,0.2,0c1.1-0.5,2.2-0.9,3.3-1.2c0.3-0.1,0.4-0.4,0.3-0.6c-0.1-0.3-0.4-0.4-0.6-0.3
			c-1.1,0.4-2.3,0.8-3.4,1.3c-0.3,0.1-0.4,0.4-0.3,0.7C34,14,34.2,14.1,34.4,14.1z"/>
		<path class="st1" d="M88.4,42.9c0.2,1.1,0.4,2.3,0.5,3.5c0,0.3,0.2,0.5,0.5,0.5c0,0,0,0,0,0c0.3,0,0.5-0.3,0.5-0.5
			c-0.1-1.2-0.3-2.4-0.5-3.6c-0.1-0.3-0.3-0.5-0.6-0.4C88.6,42.4,88.4,42.7,88.4,42.9z"/>
		<path class="st1" d="M41.1,11.9c0,0,0.1,0,0.1,0c1.1-0.3,2.3-0.5,3.4-0.6c0.3,0,0.5-0.3,0.4-0.6c0-0.3-0.3-0.5-0.6-0.4
			c-1.2,0.2-2.4,0.4-3.5,0.6c-0.3,0.1-0.4,0.3-0.4,0.6C40.7,11.8,40.9,11.9,41.1,11.9z"/>
		<path class="st1" d="M68.5,84.4c-1,0.6-2.1,1.1-3.2,1.5c-0.3,0.1-0.4,0.4-0.3,0.7c0.1,0.2,0.3,0.3,0.5,0.3c0.1,0,0.1,0,0.2,0
			c1.1-0.5,2.2-1,3.2-1.6c0.2-0.1,0.3-0.4,0.2-0.7C69.1,84.4,68.8,84.3,68.5,84.4z"/>
		<path class="st1" d="M34.7,85.9c-1.1-0.5-2.1-1-3.2-1.5c-0.2-0.1-0.6,0-0.7,0.2s0,0.6,0.2,0.7c1.1,0.6,2.1,1.1,3.2,1.6
			c0.1,0,0.1,0,0.2,0c0.2,0,0.4-0.1,0.5-0.3C35,86.3,34.9,86,34.7,85.9z"/>
		<path class="st1" d="M84.2,69.9c-0.2-0.1-0.6-0.1-0.7,0.2c-0.6,1-1.2,2-1.9,2.9c-0.2,0.2-0.1,0.5,0.1,0.7c0.1,0.1,0.2,0.1,0.3,0.1
			c0.2,0,0.3-0.1,0.4-0.2c0.7-1,1.4-2,2-3C84.6,70.3,84.5,70,84.2,69.9z"/>
		<path class="st1" d="M88.1,39.9c0,0,0.1,0,0.1,0c0.3-0.1,0.4-0.4,0.4-0.6c-0.3-1.1-0.7-2.3-1.1-3.4c-0.1-0.3-0.4-0.4-0.7-0.3
			c-0.3,0.1-0.4,0.4-0.3,0.7c0.4,1.1,0.8,2.2,1.1,3.3C87.7,39.7,87.9,39.9,88.1,39.9z"/>
		<path class="st1" d="M79.4,75.7c-0.8,0.9-1.6,1.7-2.4,2.5c-0.2,0.2-0.2,0.5,0,0.7c0.1,0.1,0.2,0.2,0.4,0.2c0.1,0,0.3,0,0.3-0.1
			c0.9-0.8,1.7-1.7,2.5-2.6c0.2-0.2,0.2-0.5,0-0.7C79.9,75.5,79.6,75.5,79.4,75.7z"/>
		<path class="st1" d="M89,56.6c-0.3,0-0.5,0.1-0.6,0.4c-0.2,1.1-0.5,2.3-0.8,3.4c-0.1,0.3,0.1,0.5,0.4,0.6c0,0,0.1,0,0.1,0
			c0.2,0,0.4-0.1,0.5-0.4c0.3-1.1,0.6-2.3,0.8-3.5C89.5,56.9,89.3,56.6,89,56.6z"/>
		<path class="st1" d="M89.6,49.4c-0.3,0-0.5,0.2-0.5,0.5V50c0,1.2-0.1,2.3-0.2,3.5c0,0.3,0.2,0.5,0.5,0.5c0,0,0,0,0,0
			c0.3,0,0.5-0.2,0.5-0.5c0.1-1.2,0.2-2.4,0.2-3.6v-0.1C90.1,49.6,89.8,49.4,89.6,49.4z"/>
		<path class="st1" d="M87.2,63.4c-0.3-0.1-0.6,0-0.7,0.3c-0.4,1.1-0.9,2.2-1.4,3.2c-0.1,0.3,0,0.6,0.2,0.7c0.1,0,0.1,0.1,0.2,0.1
			c0.2,0,0.4-0.1,0.5-0.3c0.5-1.1,1-2.2,1.4-3.3C87.6,63.8,87.5,63.5,87.2,63.4z"/>
		<path class="st1" d="M55.3,88.7c-1.2,0.2-2.3,0.3-3.5,0.3c-0.3,0-0.5,0.2-0.5,0.5c0,0.3,0.2,0.5,0.5,0.5c0,0,0,0,0,0
			c1.2-0.1,2.4-0.2,3.6-0.3c0.3,0,0.5-0.3,0.4-0.6C55.8,88.9,55.5,88.7,55.3,88.7z"/>
		<path class="st1" d="M62.1,87.1c-1.1,0.4-2.2,0.7-3.4,0.9c-0.3,0.1-0.4,0.3-0.4,0.6c0.1,0.2,0.3,0.4,0.5,0.4c0,0,0.1,0,0.1,0
			c1.2-0.3,2.3-0.6,3.5-1c0.3-0.1,0.4-0.4,0.3-0.6C62.6,87.2,62.4,87.1,62.1,87.1z"/>
		<path class="st1" d="M74.4,80.5c-0.9,0.7-1.9,1.4-2.8,2.1c-0.2,0.2-0.3,0.5-0.1,0.7c0.1,0.1,0.3,0.2,0.4,0.2c0.1,0,0.2,0,0.3-0.1
			c1-0.7,2-1.4,2.9-2.1c0.2-0.2,0.3-0.5,0.1-0.7C74.9,80.4,74.6,80.4,74.4,80.5z"/>
		<path class="st1" d="M41.3,88.1c-1.1-0.3-2.3-0.6-3.4-0.9c-0.3-0.1-0.6,0.1-0.6,0.3s0.1,0.6,0.3,0.6c1.1,0.4,2.3,0.7,3.5,1
			c0,0,0.1,0,0.1,0c0.2,0,0.4-0.2,0.5-0.4C41.8,88.4,41.6,88.2,41.3,88.1z"/>
		<path class="st1" d="M48.3,89c-1.2-0.1-2.3-0.2-3.5-0.3c-0.3,0-0.5,0.2-0.6,0.4c0,0.3,0.2,0.5,0.4,0.6c1.2,0.2,2.4,0.3,3.6,0.3
			c0,0,0,0,0,0c0.3,0,0.5-0.2,0.5-0.5C48.8,89.3,48.5,89,48.3,89z"/>
	</g>
	<path class="st3" d="M50,15.1c-19.2,0-34.9,15.6-34.9,34.9S30.8,84.9,50,84.9S84.9,69.2,84.9,50S69.2,15.1,50,15.1z M50,83.9
		c-18.7,0-33.9-15.2-33.9-33.9S31.3,16.1,50,16.1S83.9,31.3,83.9,50S68.7,83.9,50,83.9z"/>
	<path class="st3" d="M53.7,46.2l-3.2-15.4c0-0.2-0.3-0.4-0.5-0.4s-0.4,0.2-0.5,0.4l-3.2,15.4c0,0.2,0,0.3,0.1,0.4l1.7,1.9
		c-0.3,0.4-0.5,0.9-0.5,1.4s0.2,1,0.5,1.4l-1.7,1.9c-0.1,0.1-0.2,0.3-0.1,0.4l3.2,15.4c0,0.2,0.3,0.4,0.5,0.4s0.4-0.2,0.5-0.4
		l3.2-15.4c0-0.2,0-0.3-0.1-0.4l-1.7-1.9c0.3-0.4,0.5-0.9,0.5-1.4s-0.2-1-0.5-1.4l1.7-1.9C53.7,46.6,53.8,46.4,53.7,46.2z M49.1,49
		c0.1-0.1,0.3-0.2,0.6-0.3c0,0,0,0,0.1,0c0.1,0,0.2,0,0.3,0s0.2,0,0.3,0c0,0,0,0,0.1,0c0.2,0.1,0.4,0.2,0.6,0.3c0,0,0,0,0,0
		c0.3,0.2,0.4,0.6,0.4,1s-0.2,0.7-0.4,1c0,0,0,0,0,0c-0.1,0.1-0.3,0.2-0.6,0.3c0,0,0,0-0.1,0c-0.1,0-0.2,0-0.3,0s-0.2,0-0.3,0
		c0,0,0,0-0.1,0c-0.2-0.1-0.4-0.2-0.6-0.3c0,0,0,0,0,0c-0.3-0.2-0.4-0.6-0.4-1C48.7,49.6,48.8,49.3,49.1,49C49.1,49,49.1,49,49.1,49
		z M50,66.6l-2.7-12.8l1.5-1.7c0,0,0.1,0,0.1,0c0.1,0,0.1,0.1,0.2,0.1c0.1,0,0.2,0.1,0.3,0.1c0.1,0,0.1,0,0.2,0c0.1,0,0.1,0,0.2,0
		c0.1,0,0.1,0,0.2,0s0.1,0,0.2,0c0.1,0,0.1,0,0.2,0c0.1,0,0.1,0,0.2,0c0.1,0,0.2,0,0.3-0.1c0.1,0,0.1-0.1,0.2-0.1c0,0,0.1,0,0.1,0
		l1.5,1.7L50,66.6z M51.1,47.9c0,0-0.1,0-0.1-0.1c-0.1,0-0.1-0.1-0.2-0.1c-0.1,0-0.2-0.1-0.3-0.1c0,0-0.1,0-0.1,0
		c-0.1,0-0.3,0-0.4,0s-0.3,0-0.4,0c0,0-0.1,0-0.1,0c-0.1,0-0.2,0.1-0.3,0.1c-0.1,0-0.1,0.1-0.2,0.1c0,0-0.1,0-0.1,0.1l-1.5-1.7
		L50,33.4l2.7,12.8L51.1,47.9z"/>
	<path class="st3" d="M70.6,28.6L67.3,32c-0.2,0.2-0.2,0.5,0,0.7c0.1,0.1,0.2,0.1,0.4,0.1c0.1,0,0.3,0,0.4-0.1l3.3-3.3
		c0.2-0.2,0.2-0.5,0-0.7C71.2,28.4,70.8,28.4,70.6,28.6z"/>
	<path class="st3" d="M32,67.3l-3.3,3.3c-0.2,0.2-0.2,0.5,0,0.7c0.1,0.1,0.2,0.1,0.4,0.1s0.3,0,0.4-0.1l3.3-3.3
		c0.2-0.2,0.2-0.5,0-0.7C32.5,67.1,32.2,67.1,32,67.3z"/>
	<path class="st3" d="M29.4,28.6c-0.2-0.2-0.5-0.2-0.7,0s-0.2,0.5,0,0.7l3.3,3.3c0.1,0.1,0.2,0.1,0.4,0.1s0.3,0,0.4-0.1
		c0.2-0.2,0.2-0.5,0-0.7L29.4,28.6z"/>
	<path class="st3" d="M68,67.3c-0.2-0.2-0.5-0.2-0.7,0s-0.2,0.5,0,0.7l3.3,3.3c0.1,0.1,0.2,0.1,0.4,0.1c0.1,0,0.3,0,0.4-0.1
		c0.2-0.2,0.2-0.5,0-0.7L68,67.3z"/>
	<path class="st3" d="M75,50.5h4.7c0.3,0,0.5-0.2,0.5-0.5s-0.2-0.5-0.5-0.5H75c-0.3,0-0.5,0.2-0.5,0.5S74.7,50.5,75,50.5z"/>
	<path class="st3" d="M25,49.5h-4.7c-0.3,0-0.5,0.2-0.5,0.5s0.2,0.5,0.5,0.5H25c0.3,0,0.5-0.2,0.5-0.5S25.3,49.5,25,49.5z"/>
	<polygon class="st3" points="48.7,21.7 51.2,25.8 52.5,25.8 52.5,19.5 51.3,19.5 51.3,23.7 48.7,19.5 47.5,19.5 47.5,25.8 
		48.7,25.8 	"/>
	<path class="st3" d="M51.6,77c-0.3-0.2-0.8-0.3-1.4-0.5s-1-0.3-1.2-0.4c-0.1-0.1-0.2-0.2-0.2-0.4c0-0.2,0.1-0.3,0.2-0.4
		c0.2-0.2,0.5-0.2,0.9-0.2c0.4,0,0.6,0.1,0.8,0.2c0.2,0.1,0.3,0.4,0.3,0.7l1.3-0.1c0-0.6-0.2-1-0.6-1.4c-0.4-0.3-1-0.5-1.8-0.5
		c-0.5,0-0.9,0.1-1.2,0.2c-0.3,0.1-0.6,0.4-0.8,0.6s-0.3,0.6-0.3,0.9c0,0.5,0.2,0.9,0.6,1.3c0.3,0.2,0.8,0.5,1.4,0.6
		c0.5,0.1,0.9,0.2,1,0.3c0.2,0.1,0.4,0.2,0.5,0.3c0.1,0.1,0.1,0.2,0.1,0.4c0,0.2-0.1,0.4-0.3,0.6c-0.2,0.2-0.5,0.3-0.9,0.3
		c-0.4,0-0.7-0.1-0.9-0.3c-0.2-0.2-0.4-0.5-0.5-0.9l-1.2,0.1c0.1,0.7,0.3,1.2,0.8,1.6c0.4,0.4,1,0.6,1.8,0.6c0.5,0,1-0.1,1.4-0.2
		c0.4-0.2,0.6-0.4,0.8-0.7c0.2-0.3,0.3-0.7,0.3-1c0-0.4-0.1-0.7-0.3-1C52.1,77.4,51.9,77.2,51.6,77z"/>
</g>
</svg>
