<?xml version="1.0" encoding="utf-8"?>
<!-- Generator: Adobe Illustrator 20.1.0, SVG Export Plug-In . SVG Version: 6.00 Build 0)  -->
<svg version="1.1" id="Layer_1" xmlns="http://www.w3.org/2000/svg" xmlns:xlink="http://www.w3.org/1999/xlink" x="0px" y="0px"
	 viewBox="0 0 100 100" style="enable-background:new 0 0 100 100;" xml:space="preserve">
<style type="text/css">
	.st0{display:none;}
	.st1{display:inline;fill:#F1B57D;}
	.st2{display:none;fill:#F2C6A1;}
	.st3{display:none;fill:#F0566F;}
	.st4{display:none;fill:#C58855;}
	.st5{fill:#136296;}
	.st6{display:inline;fill:#FEE36F;}
</style>
<g>
	<g class="st0">
		<path class="st1" d="M76.6,71.3H23.4c2.6,0,4.7,4.2,4.7,9.4S26,90,23.4,90h53.1c2.6,0,4.7-4.2,4.7-9.4
			C81.2,75.5,79.1,71.3,76.6,71.3z"/>
	</g>
	<ellipse class="st2" cx="23.4" cy="80.6" rx="4.7" ry="9.4"/>
	<path class="st3" d="M48.9,64.9c0,0-7,0.2-11.7-5.2s-7.6-12.7-3-17.7s3.6-13.3-0.3-15.7c0,0,8.6-1.4,10.1,6.6c0,0,3.3-2.2,1.3-6.4
		s-3.4-12.6,4.5-13c0,0-3.3,2.9,0.9,7.2S61,28.6,61.6,40.2c0,0,4.7-3.9,1.1-11.2c0,0,6.7,4.1,5.8,11.4
		C67.7,47.5,63.7,64.9,48.9,64.9z"/>
	<path class="st4" d="M43.2,82.5h-7.7c-0.3,0-0.5,0.2-0.5,0.5s0.2,0.5,0.5,0.5h7.7c0.3,0,0.5-0.2,0.5-0.5
		C43.7,82.7,43.5,82.5,43.2,82.5z"/>
	<path class="st4" d="M42.5,79.6H54c0.3,0,0.5-0.2,0.5-0.5s-0.2-0.5-0.5-0.5H42.5c-0.3,0-0.5,0.2-0.5,0.5S42.3,79.6,42.5,79.6z"/>
	<path class="st4" d="M60.4,82.5h9c0.3,0,0.5-0.2,0.5-0.5s-0.2-0.5-0.5-0.5h-9c-0.3,0-0.5,0.2-0.5,0.5
		C59.9,82.3,60.1,82.5,60.4,82.5z"/>
	<path class="st5" d="M94.5,89.5H78.9c1.7-1.6,2.9-4.9,2.9-8.8c0-5.5-2.3-9.9-5.2-9.9H23.5h0h0c-2.9,0-5.2,4.3-5.2,9.9
		c0,3.9,1.2,7.3,2.9,8.8H5.5C5.2,89.5,5,89.7,5,90c0,0.3,0.2,0.5,0.5,0.5h17.9h53.1h17.9c0.3,0,0.5-0.2,0.5-0.5
		C95,89.7,94.8,89.5,94.5,89.5z M19.3,80.6c0-4.8,1.9-8.8,4.2-8.8s4.2,4.1,4.2,8.8s-1.9,8.8-4.2,8.8C21.2,89.5,19.3,85.4,19.3,80.6z
		 M25.8,89.5c0,0,0.1-0.1,0.1-0.1c0,0,0.1-0.1,0.1-0.1c0.1-0.1,0.2-0.2,0.3-0.4c0,0,0,0,0-0.1c0.1-0.2,0.2-0.3,0.4-0.5
		c0,0,0.1-0.1,0.1-0.1c0.1-0.1,0.2-0.3,0.3-0.4c0,0,0.1-0.1,0.1-0.1c0,0,0,0,0-0.1H36c0.3,0,0.5-0.2,0.5-0.5s-0.2-0.5-0.5-0.5h-8.3
		c0-0.1,0.1-0.2,0.1-0.2c0-0.1,0-0.1,0.1-0.2c0.1-0.2,0.1-0.4,0.2-0.7c0,0,0,0,0,0c0.1-0.2,0.1-0.5,0.2-0.8c0-0.1,0-0.1,0-0.2
		c0-0.2,0.1-0.4,0.1-0.6c0-0.1,0-0.1,0-0.2c0-0.3,0.1-0.6,0.1-0.8c0-0.1,0-0.1,0-0.2c0-0.2,0-0.5,0.1-0.7c0-0.1,0-0.2,0-0.3
		c0-0.3,0-0.6,0-0.9c0-0.3,0-0.6,0-0.9c0-0.1,0-0.2,0-0.3c0-0.2,0-0.5-0.1-0.7c0-0.1,0-0.1,0-0.2c0-0.3-0.1-0.6-0.1-0.8
		c0-0.1,0-0.1,0-0.2c0-0.2-0.1-0.4-0.1-0.6c0-0.1,0-0.1,0-0.2c0-0.2-0.1-0.4-0.1-0.5h18.4c0.3,0,0.5-0.2,0.5-0.5s-0.2-0.5-0.5-0.5
		H27.8c0-0.1,0-0.1-0.1-0.2c-0.1-0.2-0.1-0.4-0.2-0.6c0,0,0-0.1-0.1-0.1c-0.1-0.2-0.2-0.4-0.3-0.6c0,0-0.1-0.1-0.1-0.1
		c-0.1-0.2-0.2-0.3-0.3-0.4c0,0-0.1-0.1-0.1-0.1c-0.1-0.2-0.2-0.3-0.4-0.5c0,0,0,0,0-0.1c-0.1-0.1-0.2-0.3-0.3-0.4
		c0,0-0.1-0.1-0.1-0.1c0,0-0.1-0.1-0.1-0.1h50.8c1.6,0,3,2,3.7,4.7H64.9c-0.3,0-0.5,0.2-0.5,0.5s0.2,0.5,0.5,0.5h15.6
		c0.2,1,0.3,2,0.3,3.1c0,1.9-0.3,3.6-0.8,5H50.9c-0.3,0-0.5,0.2-0.5,0.5s0.2,0.5,0.5,0.5h28.7c-0.8,1.7-1.8,2.8-3,2.8H25.8z"/>
	<path class="st5" d="M33.6,26.8c1.5,0.9,2.7,3,3,5.5c0.5,3.5-0.6,7-2.8,9.4c-4.9,5.3-1.7,13,3,18.4c4.4,5.1,10.7,5.4,11.9,5.4
		c0.1,0,0.1,0,0.2,0c16.4,0,19.6-20.7,20.1-24.9c0.9-7.5-6-11.8-6.1-11.9c-0.2-0.1-0.4-0.1-0.6,0.1c-0.2,0.2-0.2,0.4-0.1,0.6
		c2.5,5,0.9,8.3-0.2,9.7C61.3,30,57,26,53.2,22.6c-0.8-0.7-1.5-1.4-2.2-2.1c-1.4-1.4-2-2.8-2-4C49,14.9,50,14,50,14
		c0.2-0.1,0.2-0.4,0.1-0.6c-0.1-0.2-0.3-0.3-0.5-0.3c-2.6,0.1-4.5,1.1-5.6,3c-1.7,3-0.9,7.7,0.7,10.8c1.3,2.6,0.2,4.4-0.5,5.2
		c-2-7.5-10.4-6.2-10.5-6.2c-0.2,0-0.4,0.2-0.4,0.4C33.3,26.5,33.4,26.7,33.6,26.8z M43.5,33.1c0,0.2,0.1,0.3,0.3,0.4
		c0.2,0.1,0.3,0,0.5,0c0,0,3.7-2.5,1.4-7c-1.2-2.4-2.4-7-0.7-9.8c0.7-1.2,1.9-2,3.6-2.3c-0.3,0.5-0.6,1.2-0.6,2.1
		c-0.1,1.6,0.7,3.2,2.3,4.8c0.7,0.7,1.5,1.4,2.3,2.1c3.8,3.5,8.1,7.4,8.6,16.9c0,0.2,0.1,0.4,0.3,0.4c0.2,0.1,0.4,0,0.5-0.1
		c0,0,4.2-3.6,2-9.9c1.8,1.7,4.6,5,4.1,9.7c-0.5,4-3.5,24-19.1,24c0,0,0,0,0,0c-0.1,0-6.8,0.2-11.3-5c-4.4-5.1-7.5-12.2-3-17
		c2.4-2.7,3.6-6.5,3.1-10.2c-0.3-2.3-1.2-4.1-2.4-5.4C37.5,26.7,42.4,27.3,43.5,33.1z"/>
	<g class="st0">
		<path class="st6" d="M36,47.8c-0.1-0.3-0.3-0.4-0.6-0.4c-0.3,0.1-0.4,0.3-0.4,0.6c0,0,0.1,0.5,0.3,1.3c0.1,0.2,0.3,0.4,0.5,0.4
			c0,0,0.1,0,0.2,0c0.3-0.1,0.4-0.4,0.3-0.6C36.1,48.3,36,47.9,36,47.8z"/>
		<path class="st6" d="M40.3,56.5c-0.2-0.2-0.5-0.2-0.7-0.1c-0.2,0.2-0.2,0.5-0.1,0.7c0.7,0.8,1.4,1.5,2.2,2.1
			c0.1,0.1,0.2,0.1,0.3,0.1c0.2,0,0.3-0.1,0.4-0.2c0.2-0.2,0.1-0.5-0.1-0.7C41.6,57.8,40.9,57.2,40.3,56.5z"/>
		<path class="st6" d="M37.3,51.7c-0.1-0.3-0.4-0.4-0.7-0.3c-0.3,0.1-0.4,0.4-0.3,0.7c0.4,0.9,0.9,1.8,1.4,2.6
			c0.1,0.2,0.3,0.2,0.4,0.2c0.1,0,0.2,0,0.3-0.1c0.2-0.1,0.3-0.5,0.2-0.7C38.2,53.4,37.7,52.6,37.3,51.7z"/>
		<path class="st6" d="M45.8,60.1c-0.4-0.1-0.8-0.2-1.1-0.4c-0.3-0.1-0.6,0-0.7,0.3c-0.1,0.3,0,0.6,0.3,0.7c0.4,0.2,0.8,0.3,1.3,0.4
			c0,0,0.1,0,0.1,0c0.2,0,0.4-0.2,0.5-0.4C46.3,60.4,46.1,60.2,45.8,60.1z"/>
	</g>
	<path class="st5" d="M39.4,21.9c0.1,0,0.1,0,0.2,0c0.3-0.1,0.4-0.4,0.3-0.6c-0.1-0.3-2.3-7.3,6.8-10.7c0.3-0.1,0.4-0.4,0.3-0.7
		c-0.1-0.3-0.4-0.4-0.7-0.3c-10,3.8-7.5,11.9-7.4,12C38.9,21.7,39.1,21.9,39.4,21.9z"/>
	<path class="st5" d="M65.3,27.4c0.3,0.2,8,4.7,6.2,15.3c0,0.3,0.1,0.5,0.4,0.6c0,0,0.1,0,0.1,0c0.2,0,0.5-0.2,0.5-0.4
		c1.9-11.3-6.6-16.3-6.7-16.4c-0.2-0.1-0.6-0.1-0.7,0.2C65,27,65.1,27.3,65.3,27.4z"/>
	<path class="st5" d="M31.1,57.7c0.1,0,0.2,0,0.3-0.1c0.2-0.1,0.3-0.5,0.2-0.7c-7.3-11.6-0.4-16.7-0.1-17c0.2-0.2,0.3-0.5,0.1-0.7
		c-0.2-0.2-0.5-0.3-0.7-0.1c-0.1,0.1-8,5.8-0.1,18.3C30.8,57.6,31,57.7,31.1,57.7z"/>
</g>
</svg>
