<?xml version="1.0" encoding="utf-8"?>
<!-- Generator: Adobe Illustrator 20.1.0, SVG Export Plug-In . SVG Version: 6.00 Build 0)  -->
<svg version="1.1" id="Layer_1" xmlns="http://www.w3.org/2000/svg" xmlns:xlink="http://www.w3.org/1999/xlink" x="0px" y="0px"
	 viewBox="0 0 100 100" style="enable-background:new 0 0 100 100;" xml:space="preserve">
<style type="text/css">
	.st0{display:none;fill:#F0566F;}
	.st1{display:none;fill:#3792CF;}
	.st2{display:none;fill:#6AC9CC;}
	.st3{display:none;fill:#FEE36F;}
	.st4{fill:#136296;}
	.st5{fill:#FFFFFF;}
</style>
<g>
	<path class="st0" d="M54.8,49.3c0,0,3.4-4.5,10.6,0.3c7.2,4.8,13.4,9.4,22.9,9l6.3-18.7c-9.5,0.4-14.8-3.9-22-8.7
		c-7.2-4.8-11.4-0.6-11.4-0.6L54.8,49.3z"/>
	<path class="st1" d="M71.1,72.5c-0.3-0.6-1.2-0.6-1.4,0l-9,22H80L71.1,72.5z"/>
	<path class="st2" d="M60.2,76.4c-0.2-0.5-1-0.5-1.2,0l-7.4,18.1h9l3.5-8.5L60.2,76.4z"/>
	<ellipse class="st3" cx="25.7" cy="25.7" rx="15" ry="15"/>
	<path class="st4" d="M94.5,94H80.4l-8.9-21.7c-0.2-0.5-0.7-0.8-1.2-0.8s-1,0.3-1.2,0.8l-5,12.4l-3.5-8.5c-0.2-0.4-0.6-0.7-1.1-0.7
		s-0.9,0.3-1.1,0.7L51.3,94H40.4l14.9-44.5c0.4-0.5,3.5-3.7,9.8,0.5l1.1,0.8c6.4,4.3,12.4,8.3,20.9,8.3c0.4,0,0.8,0,1.1,0
		c0.2,0,0.4-0.1,0.5-0.3L95,40c0.1-0.2,0-0.3-0.1-0.5s-0.3-0.2-0.4-0.2C86,39.7,80.9,36.3,74.6,32c-0.6-0.4-1.2-0.8-1.8-1.2
		c-5.1-3.4-8.9-2.4-10.7-1.5l2.1-6.1c0.1-0.3-0.1-0.6-0.3-0.6c-0.3-0.1-0.6,0.1-0.6,0.3L39.3,94H5.5C5.2,94,5,94.2,5,94.5
		C5,94.8,5.2,95,5.5,95h46.1h9H80h14.5c0.3,0,0.5-0.2,0.5-0.5C95,94.2,94.8,94,94.5,94z M61.5,30.8c0.6-0.5,4.4-3.4,10.7,0.8
		c0.6,0.4,1.2,0.8,1.8,1.2c6.1,4.1,11.4,7.7,19.8,7.6l-5.9,17.7c-8.6,0.3-14.4-3.6-21.1-8.1l-1.1-0.8c-2.6-1.7-4.7-2.3-6.4-2.3
		c-1.5,0-2.6,0.4-3.4,0.9l1.9-5.6L61.5,30.8z M59.5,76.6c0-0.1,0.2-0.1,0.2,0l3.8,9.4l-3.3,8h-7.9L59.5,76.6z M61.4,94l8.7-21.3
		c0.1-0.1,0.2-0.2,0.2-0.2c0.1,0,0.2,0,0.2,0.2L79.3,94C79.3,94,61.4,94,61.4,94z"/>
	<g>
		<path class="st4" d="M26.9,6c0.8,0,1.6,0.1,2.5,0.3c0,0,0.1,0,0.1,0c0.2,0,0.5-0.2,0.5-0.4c0.1-0.3-0.1-0.5-0.4-0.6
			C28.7,5.2,27.8,5.1,27,5c-0.3,0-0.5,0.2-0.5,0.5C26.4,5.8,26.6,6,26.9,6z"/>
		<path class="st4" d="M40.1,39.2c-0.6,0.6-1.2,1.2-1.8,1.7c-0.2,0.2-0.2,0.5-0.1,0.7c0.1,0.1,0.2,0.2,0.4,0.2c0.1,0,0.2,0,0.3-0.1
			c0.7-0.6,1.3-1.2,1.9-1.8c0.2-0.2,0.2-0.5,0-0.7C40.6,39,40.3,39,40.1,39.2z"/>
		<path class="st4" d="M22.1,45.1c-0.8-0.2-1.6-0.4-2.4-0.6c-0.3-0.1-0.6,0.1-0.6,0.3c-0.1,0.3,0.1,0.6,0.3,0.6
			c0.8,0.3,1.7,0.5,2.5,0.6c0,0,0.1,0,0.1,0c0.2,0,0.5-0.2,0.5-0.4C22.5,45.4,22.3,45.1,22.1,45.1z"/>
		<path class="st4" d="M36.3,42.4c-0.7,0.4-1.4,0.8-2.2,1.2c-0.3,0.1-0.4,0.4-0.2,0.7c0.1,0.2,0.3,0.3,0.5,0.3c0.1,0,0.1,0,0.2,0
			c0.8-0.4,1.5-0.8,2.3-1.3c0.2-0.2,0.3-0.5,0.2-0.7C36.9,42.3,36.5,42.2,36.3,42.4z"/>
		<path class="st4" d="M27,45.4c-0.4,0-0.8,0-1.2,0c-0.4,0-0.8,0-1.2,0c-0.3,0-0.5,0.2-0.5,0.5s0.2,0.5,0.5,0.5c0.4,0,0.9,0,1.3,0
			c0,0,0,0,0,0c0.4,0,0.9,0,1.3,0c0.3,0,0.5-0.3,0.5-0.5C27.5,45.6,27.3,45.4,27,45.4z"/>
		<path class="st4" d="M31.8,6.9c0.8,0.3,1.6,0.6,2.3,0.9c0.1,0,0.1,0,0.2,0c0.2,0,0.4-0.1,0.5-0.3c0.1-0.3,0-0.6-0.2-0.7
			c-0.8-0.4-1.6-0.7-2.4-1c-0.3-0.1-0.6,0.1-0.6,0.3C31.4,6.5,31.5,6.8,31.8,6.9z"/>
		<path class="st4" d="M44.8,20.7c0.2,0.8,0.4,1.6,0.5,2.4c0,0.3,0.3,0.4,0.5,0.4c0,0,0,0,0.1,0c0.3,0,0.5-0.3,0.4-0.6
			c-0.1-0.9-0.3-1.7-0.5-2.6c-0.1-0.3-0.3-0.4-0.6-0.4C44.9,20.2,44.7,20.4,44.8,20.7z"/>
		<path class="st4" d="M45.5,30.2c-0.3-0.1-0.5,0.1-0.6,0.4c-0.2,0.8-0.5,1.6-0.8,2.4c-0.1,0.3,0,0.6,0.3,0.7c0.1,0,0.1,0,0.2,0
			c0.2,0,0.4-0.1,0.5-0.3c0.3-0.8,0.6-1.6,0.8-2.5C45.9,30.6,45.7,30.3,45.5,30.2z"/>
		<path class="st4" d="M46.5,25.6c0-0.3-0.2-0.5-0.5-0.5c-0.3,0-0.5,0.2-0.5,0.5v0.1c0,0.8-0.1,1.7-0.2,2.5c0,0.3,0.2,0.5,0.4,0.6
			c0,0,0,0,0.1,0c0.3,0,0.5-0.2,0.5-0.4C46.4,27.4,46.5,26.6,46.5,25.6L46.5,25.6z"/>
		<path class="st4" d="M43.7,35c-0.2-0.1-0.6,0-0.7,0.2c-0.4,0.7-0.8,1.4-1.3,2.1c-0.2,0.2-0.1,0.5,0.1,0.7c0.1,0.1,0.2,0.1,0.3,0.1
			c0.2,0,0.3-0.1,0.4-0.2c0.5-0.7,1-1.4,1.4-2.2C44,35.4,43.9,35.1,43.7,35z"/>
		<path class="st4" d="M41.6,14.1c0.1,0.1,0.3,0.2,0.4,0.2c0.1,0,0.2,0,0.3-0.1c0.2-0.2,0.3-0.5,0.1-0.7c-0.5-0.7-1.1-1.4-1.7-2
			c-0.2-0.2-0.5-0.2-0.7,0c-0.2,0.2-0.2,0.5,0,0.7C40.6,12.7,41.2,13.4,41.6,14.1z"/>
		<path class="st4" d="M36.2,9c0.7,0.4,1.4,0.9,2,1.5c0.1,0.1,0.2,0.1,0.3,0.1c0.1,0,0.3-0.1,0.4-0.2c0.2-0.2,0.1-0.5-0.1-0.7
			c-0.7-0.6-1.4-1.1-2.1-1.5c-0.2-0.1-0.5-0.1-0.7,0.2C35.9,8.5,36,8.9,36.2,9z"/>
		<path class="st4" d="M44,18.4c0.1,0.2,0.3,0.3,0.5,0.3c0.1,0,0.1,0,0.2,0c0.3-0.1,0.4-0.4,0.3-0.7c-0.3-0.8-0.7-1.6-1.1-2.3
			c-0.1-0.2-0.4-0.3-0.7-0.2s-0.3,0.4-0.2,0.7C43.4,16.9,43.7,17.6,44,18.4z"/>
		<path class="st4" d="M31.8,44.5c-0.8,0.3-1.6,0.5-2.4,0.6c-0.3,0.1-0.5,0.3-0.4,0.6c0,0.2,0.3,0.4,0.5,0.4c0,0,0.1,0,0.1,0
			c0.9-0.2,1.7-0.4,2.5-0.6c0.3-0.1,0.4-0.4,0.3-0.6C32.4,44.5,32.1,44.4,31.8,44.5z"/>
		<path class="st4" d="M6.7,18.8c0.1,0,0.1,0,0.2,0c0.2,0,0.4-0.1,0.5-0.3C7.7,17.7,8,17,8.4,16.2c0.1-0.2,0-0.6-0.2-0.7
			c-0.2-0.1-0.6,0-0.7,0.2c-0.4,0.8-0.8,1.6-1.1,2.4C6.3,18.4,6.5,18.7,6.7,18.8z"/>
		<path class="st4" d="M8.5,35.2C8.3,35,8,34.9,7.8,35c-0.2,0.1-0.3,0.4-0.2,0.7C8,36.5,8.5,37.2,9,37.9c0.1,0.1,0.3,0.2,0.4,0.2
			c0.1,0,0.2,0,0.3-0.1c0.2-0.2,0.3-0.5,0.1-0.7C9.3,36.7,8.9,36,8.5,35.2z"/>
		<path class="st4" d="M6.6,30.6c-0.1-0.3-0.3-0.4-0.6-0.4c-0.3,0.1-0.4,0.3-0.4,0.6c0.2,0.8,0.5,1.7,0.8,2.5
			c0.1,0.2,0.3,0.3,0.5,0.3c0.1,0,0.1,0,0.2,0c0.3-0.1,0.4-0.4,0.3-0.7C7.1,32.2,6.8,31.4,6.6,30.6z"/>
		<path class="st4" d="M5.7,28.8c0.3,0,0.5-0.3,0.4-0.6C6.1,27.4,6,26.6,6,25.7c0-0.3-0.2-0.5-0.5-0.5c0,0,0,0,0,0
			c-0.3,0-0.5,0.2-0.5,0.5c0,0.9,0.1,1.7,0.2,2.6C5.2,28.6,5.4,28.8,5.7,28.8C5.7,28.8,5.7,28.8,5.7,28.8z"/>
		<path class="st4" d="M5.6,23.7C5.6,23.7,5.6,23.7,5.6,23.7c0.3,0,0.5-0.2,0.6-0.4c0.1-0.8,0.3-1.6,0.5-2.4
			c0.1-0.3-0.1-0.5-0.4-0.6c-0.3-0.1-0.5,0.1-0.6,0.4c-0.2,0.8-0.4,1.7-0.5,2.6C5.1,23.4,5.3,23.7,5.6,23.7z"/>
		<path class="st4" d="M17.4,43.6c-0.7-0.3-1.5-0.8-2.2-1.2c-0.2-0.1-0.5-0.1-0.7,0.2c-0.1,0.2-0.1,0.5,0.2,0.7
			c0.7,0.5,1.5,0.9,2.3,1.3c0.1,0,0.1,0,0.2,0c0.2,0,0.4-0.1,0.5-0.3C17.7,44,17.6,43.7,17.4,43.6z"/>
		<path class="st4" d="M9.3,14.4c0.2,0,0.3-0.1,0.4-0.2c0.5-0.7,1-1.3,1.6-1.9c0.2-0.2,0.2-0.5,0-0.7c-0.2-0.2-0.5-0.2-0.7,0
			c-0.6,0.6-1.1,1.3-1.7,2c-0.2,0.2-0.1,0.5,0.1,0.7C9.1,14.3,9.2,14.4,9.3,14.4z"/>
		<path class="st4" d="M11.4,39.2c-0.2-0.2-0.5-0.2-0.7,0c-0.2,0.2-0.2,0.5,0,0.7c0.6,0.6,1.2,1.2,1.9,1.8c0.1,0.1,0.2,0.1,0.3,0.1
			c0.1,0,0.3-0.1,0.4-0.2c0.2-0.2,0.1-0.5-0.1-0.7C12.5,40.4,11.9,39.8,11.4,39.2z"/>
		<path class="st4" d="M21.9,6.3C21.9,6.3,21.9,6.3,21.9,6.3c0.9-0.2,1.7-0.3,2.6-0.3c0.3,0,0.5-0.3,0.5-0.5c0-0.3-0.3-0.5-0.5-0.5
			c-0.9,0.1-1.7,0.2-2.6,0.3c-0.3,0.1-0.5,0.3-0.4,0.6C21.4,6.2,21.6,6.3,21.9,6.3z"/>
		<path class="st4" d="M17.1,7.9c0.1,0,0.1,0,0.2,0C18,7.5,18.8,7.2,19.6,7c0.3-0.1,0.4-0.4,0.3-0.6S19.5,5.9,19.3,6
			c-0.8,0.3-1.6,0.6-2.4,1c-0.3,0.1-0.4,0.4-0.2,0.7C16.7,7.8,16.9,7.9,17.1,7.9z"/>
		<path class="st4" d="M12.8,10.7c0.1,0,0.2,0,0.3-0.1c0.6-0.5,1.3-1,2-1.5c0.2-0.1,0.3-0.5,0.2-0.7c-0.2-0.2-0.5-0.3-0.7-0.2
			c-0.7,0.5-1.4,1-2.1,1.5c-0.2,0.2-0.2,0.5-0.1,0.7C12.5,10.6,12.7,10.7,12.8,10.7z"/>
	</g>
	<path class="st4" d="M10.2,25.7c0,8.5,6.9,15.5,15.5,15.5s15.5-7,15.5-15.5s-6.9-15.5-15.5-15.5S10.2,17.2,10.2,25.7z M25.7,11.2
		c8,0,14.5,6.5,14.5,14.5c0,8-6.5,14.5-14.5,14.5s-14.5-6.5-14.5-14.5C11.3,17.7,17.7,11.2,25.7,11.2z"/>
	<g>
		<path class="st5" d="M90.9,41.8c-0.3-0.1-0.6,0-0.6,0.3l-0.4,1.2c-0.1,0.3,0,0.6,0.3,0.6c0.1,0,0.1,0,0.2,0c0.2,0,0.4-0.1,0.5-0.3
			l0.4-1.2C91.3,42.2,91.1,41.9,90.9,41.8z"/>
		<path class="st5" d="M88,49.6c-0.3-0.1-0.6,0-0.6,0.3l-0.8,2.2c-0.1,0.3,0,0.6,0.3,0.6c0.1,0,0.1,0,0.2,0c0.2,0,0.4-0.1,0.5-0.3
			l0.8-2.2C88.4,50,88.3,49.7,88,49.6z"/>
		<path class="st5" d="M89.6,45.2c-0.3-0.1-0.6,0-0.6,0.3l-0.8,2.2c-0.1,0.3,0,0.6,0.3,0.6c0.1,0,0.1,0,0.2,0c0.2,0,0.4-0.1,0.5-0.3
			l0.8-2.2C90,45.6,89.9,45.3,89.6,45.2z"/>
		<path class="st5" d="M86.4,54c-0.3-0.1-0.6,0-0.6,0.3l-0.4,1.2c-0.1,0.3,0,0.6,0.3,0.6c0.1,0,0.1,0,0.2,0c0.2,0,0.4-0.1,0.5-0.3
			l0.4-1.2C86.8,54.4,86.7,54.1,86.4,54z"/>
	</g>
</g>
</svg>
