<?xml version="1.0" encoding="utf-8"?>
<!-- Generator: Adobe Illustrator 20.1.0, SVG Export Plug-In . SVG Version: 6.00 Build 0)  -->
<svg version="1.1" id="Layer_1" xmlns="http://www.w3.org/2000/svg" xmlns:xlink="http://www.w3.org/1999/xlink" x="0px" y="0px"
	 viewBox="0 0 100 100" style="enable-background:new 0 0 100 100;" xml:space="preserve">
<style type="text/css">
	.st0{display:none;fill:#FBE7CD;}
	.st1{display:none;}
	.st2{display:inline;fill:#EFDAB6;}
	.st3{display:none;fill:#F68C43;}
	.st4{display:none;fill:#EFDAB6;}
	.st5{display:none;fill:#FFFFFF;}
	.st6{display:none;fill:#6AC9CC;}
	.st7{fill:#136296;}
</style>
<g>
	<path class="st0" d="M81.2,88.6l-4.7-3.6c0,0,5.1-2.3,7.3-2.4V60.4l-3-2.8V51l3-1V26.3H15.9v13.2l3.3,1.7v3.3l2.1,3.5l-5.5,3.7V90
		c0.9-0.9,2-1.4,3.2-1c4.1,1.3,4.4-1.9,4.4-1.9s0.8,3.8,0.2,7.5h9.5l3.3-17.1l2,17.1h28.9l2.7-8.9l3.7,8.9h7.8L81.2,88.6z"/>
	<g class="st1">
		<path class="st2" d="M79.1,87.1c-1.5,0.6-2.6,1.1-2.6,1.1l4.7,3.6l0.2,2.8h0.2l-0.4-5.9L79.1,87.1z"/>
		<path class="st2" d="M23.9,92.9c0,0.5-0.1,1-0.2,1.6h0.2C23.9,93.9,23.9,93.4,23.9,92.9z"/>
		<polygon class="st2" points="20,48.9 15.9,51.7 15.9,54.8 21.4,51.1 		"/>
		<rect x="15.9" y="26.3" class="st2" width="67.9" height="3.1"/>
		<polygon class="st2" points="80.8,60.7 83.8,63.5 83.8,60.4 80.8,57.6 		"/>
	</g>
	<path class="st3" d="M48.6,33.5L48.6,33.5c-4.4,0-7.9,3.6-7.9,7.9c0,3.9,2.2,9,7.9,14.8l0,0c5.8-5.7,7.9-10.9,7.9-14.8
		C56.5,37,52.9,33.5,48.6,33.5z M48.6,43.5c-1.6,0-3-1.3-3-3c0-1.6,1.3-3,3-3s3,1.3,3,3C51.5,42.1,50.2,43.5,48.6,43.5z"/>
	<circle class="st4" cx="15.9" cy="15.9" r="10.4"/>
	<g class="st1">
		<path class="st2" d="M94.5,15.9c0-5.7-4.7-10.4-10.4-10.4H15.9c5.7,0,10.4,4.7,10.4,10.4c0,5.2-3.8,9.5-8.7,10.3l0.1,0
			c-0.1,0-0.2,0-0.3,0c-0.2,0-0.4,0.1-0.5,0.1c-0.3,0-0.6,0-0.9,0l0,0h68.2c2.1,0,4.1-0.6,5.7-1.7L82.3,18l11.3,2.2
			C94.1,18.9,94.5,17.5,94.5,15.9z"/>
	</g>
	<circle class="st5" cx="24.1" cy="77.4" r="2.9"/>
	<path class="st6" d="M42.4,79.9c2.8-4-0.8-11.1,16.1-11.2s16.2-9.4,19.8-4.6s-3.8,6.6-2.8,9.2s-11.6,2.5-12.8,8.2
		S52,89.1,50.5,85.7c-1.5-3.3-1.9-3.8-5.7-2.2C41,85.2,40.2,83,42.4,79.9z"/>
	<g>
		<path class="st7" d="M48.6,56.7c-0.1,0-0.3,0-0.4-0.1C43,51.3,40.1,46,40.1,41.4c0-4.7,3.8-8.4,8.4-8.4s8.5,3.8,8.5,8.4
			c0,4.5-2.9,9.9-8.1,15.1C48.8,56.7,48.7,56.7,48.6,56.7z M48.6,34c-4.1,0-7.4,3.3-7.4,7.4c0,4.2,2.6,9.2,7.4,14.1
			c4.8-4.9,7.4-9.9,7.4-14.1C56,37.3,52.7,34,48.6,34z M48.6,44c-1.9,0-3.5-1.6-3.5-3.5s1.6-3.5,3.5-3.5c1.9,0,3.5,1.6,3.5,3.5
			S50.5,44,48.6,44z M48.6,38c-1.4,0-2.5,1.1-2.5,2.5s1.1,2.5,2.5,2.5s2.5-1.1,2.5-2.5S49.9,38,48.6,38z"/>
	</g>
	<g>
		<g>
			<path class="st7" d="M15.9,26.8C9.9,26.8,5,21.9,5,15.9S9.9,5,15.9,5c6,0,10.9,4.9,10.9,10.9S21.9,26.8,15.9,26.8z M15.9,6
				C10.5,6,6,10.5,6,15.9s4.4,9.9,9.9,9.9c5.5,0,9.9-4.4,9.9-9.9S21.4,6,15.9,6z"/>
		</g>
		<g>
			<path class="st7" d="M21.8,25c-0.1,0-0.1,0-0.2,0c-0.3-0.1-0.4-0.4-0.3-0.7c2.8-7.1,0-10.8-1.3-12c-2-1.8-4.7-2.3-6.9-1.3
				c-1.5,0.7-2.6,2.5-2.7,4.5c-0.1,2,0.6,3.7,2,4.6c1.4,0.9,2.9,1,4,0.1c1-0.8,1.4-2,1-3.1c-0.2-0.6-0.6-1-1-1.2
				c-0.9-0.4-2.1,0.2-2.1,0.2c-0.2,0.1-0.6,0-0.7-0.2c-0.1-0.2,0-0.6,0.2-0.7c0.1,0,1.6-0.8,3-0.3c0.8,0.3,1.3,0.9,1.6,1.9
				c0.5,1.5,0,3.2-1.3,4.2c-1.2,0.9-3.1,1.3-5.2-0.1c-1.7-1.1-2.6-3.2-2.4-5.5c0.2-2.4,1.4-4.4,3.3-5.3c2.5-1.2,5.7-0.6,8,1.5
				c1.5,1.4,4.6,5.4,1.6,13.1C22.2,24.8,22,25,21.8,25z"/>
		</g>
		<g>
			<g>
				<path class="st7" d="M15.9,26.8c-0.3,0-0.5-0.2-0.5-0.5s0.2-0.5,0.5-0.5h0c0.3,0,0.5,0.2,0.5,0.5S16.2,26.8,15.9,26.8z"/>
			</g>
			<g>
				<path class="st7" d="M15.9,26.8c-0.3,0-0.5-0.2-0.5-0.5s0.2-0.5,0.5-0.5h0c0.3,0,0.5,0.2,0.5,0.5S16.2,26.8,15.9,26.8z"/>
			</g>
			<g>
				<path class="st7" d="M84.1,26.8H15.9c-0.3,0-0.5-0.2-0.5-0.5s0.2-0.5,0.5-0.5c0.3,0,0.6,0,0.9,0c0.1,0,0.3,0,0.4-0.1l0.2,0
					c0,0,0,0,0.1,0c4.8-0.8,8.3-4.9,8.3-9.8c0-5.5-4.4-9.9-9.9-9.9c-0.3,0-0.5-0.2-0.5-0.5c0-0.3,0.2-0.5,0.5-0.5h68.2
					C90.1,5,95,9.9,95,15.9c0,1.6-0.3,3.1-1,4.5c-0.1,0.2-0.3,0.3-0.6,0.3L84,18.9l6.1,5.3c0.1,0.1,0.2,0.3,0.2,0.4
					s-0.1,0.3-0.2,0.4C88.3,26.2,86.2,26.8,84.1,26.8z M20.5,25.8h63.6c1.7,0,3.4-0.4,4.9-1.3l-7-6.1c-0.2-0.2-0.2-0.4-0.1-0.6
					c0.1-0.2,0.3-0.3,0.6-0.3l10.9,2.1c0.5-1.2,0.7-2.5,0.7-3.7c0-5.5-4.4-9.9-9.9-9.9H20.5c3.7,1.7,6.3,5.5,6.3,9.9
					C26.8,20.3,24.3,24.1,20.5,25.8z"/>
			</g>
			<g>
				<path class="st7" d="M15.9,6c-0.3,0-0.5-0.2-0.5-0.5c0-0.3,0.2-0.5,0.5-0.5h0c0.3,0,0.5,0.2,0.5,0.5C16.4,5.8,16.2,6,15.9,6z"/>
			</g>
		</g>
	</g>
	<g>
		<path class="st7" d="M81.6,95h-7.8c-0.2,0-0.4-0.1-0.5-0.3l-3.2-7.6l-2.3,7.6c-0.1,0.2-0.3,0.4-0.5,0.4H38.5
			c-0.3,0-0.5-0.2-0.5-0.4l-1.6-13.9l-2.7,13.9c0,0.2-0.3,0.4-0.5,0.4h-9.5c-0.1,0-0.3-0.1-0.4-0.2c-0.1-0.1-0.1-0.3-0.1-0.4
			c0.3-2.1,0.2-4.2,0.1-5.6c-0.1,0.2-0.3,0.3-0.5,0.5c-0.9,0.6-2.2,0.7-3.8,0.2c-0.9-0.3-1.8,0-2.7,0.9c-0.1,0.1-0.4,0.2-0.5,0.1
			c-0.2-0.1-0.3-0.3-0.3-0.5V51.7c0-0.2,0.1-0.3,0.2-0.4l5.1-3.5l-1.9-3.1c0-0.1-0.1-0.2-0.1-0.3v-3l-3-1.5
			c-0.2-0.1-0.3-0.3-0.3-0.5V26.3c0-0.3,0.2-0.5,0.5-0.5h67.9c0.3,0,0.5,0.2,0.5,0.5v23.6c0,0.2-0.1,0.4-0.3,0.5l-2.6,0.9v6.1
			l2.8,2.6c0.1,0.1,0.2,0.2,0.2,0.4v22.3c0,0.3-0.2,0.5-0.5,0.5c-1.6,0-4.8,1.3-6.3,2l4,3c0.1,0.1,0.2,0.2,0.2,0.4l0.4,5.9
			c0,0.1,0,0.3-0.1,0.4C81.9,94.9,81.7,95,81.6,95z M74.1,94h7l-0.4-5.1l-4.5-3.4C76,85.4,76,85.2,76,85c0-0.2,0.1-0.3,0.3-0.4
			c0.2-0.1,4.5-2.1,7-2.4V60.6L80.4,58c-0.1-0.1-0.2-0.2-0.2-0.4V51c0-0.2,0.1-0.4,0.3-0.5l2.6-0.9V26.8H16.4v12.4l3,1.5
			c0.2,0.1,0.3,0.3,0.3,0.5v3.2l2.1,3.4c0.1,0.2,0.1,0.5-0.1,0.7L16.4,52v36.9c0.9-0.6,1.9-0.8,2.9-0.5c1.3,0.4,2.2,0.4,2.9,0
			C22.9,87.9,23,87,23,87c0-0.3,0.2-0.4,0.5-0.5c0.2,0,0.5,0.2,0.5,0.4c0,0.2,0.7,3.6,0.3,7.1h8.5L36,77.2c0-0.2,0.3-0.4,0.5-0.4
			c0.2,0,0.5,0.2,0.5,0.4L38.9,94H67l2.6-8.6c0.1-0.2,0.2-0.3,0.5-0.4c0.2,0,0.4,0.1,0.5,0.3L74.1,94z"/>
	</g>
	<g>
		<g>
			<path class="st7" d="M25,72C25,72,24.9,72,25,72c-0.3,0-0.5-0.3-0.5-0.6c0,0,0.1-0.8,0.6-1.8c0.1-0.3,0.4-0.4,0.7-0.3
				c0.3,0.1,0.4,0.4,0.3,0.7c-0.4,0.9-0.5,1.5-0.5,1.5C25.4,71.8,25.2,72,25,72z"/>
		</g>
		<g>
			<path class="st7" d="M27.5,67.5c-0.1,0-0.3,0-0.4-0.1c-0.2-0.2-0.2-0.5,0-0.7c0.8-0.8,1.7-1.6,2.8-2.2c0.2-0.1,0.5-0.1,0.7,0.2
				c0.1,0.2,0.1,0.6-0.2,0.7c-1,0.6-1.9,1.3-2.6,2.1C27.7,67.4,27.6,67.5,27.5,67.5z M33.3,63.9c-0.2,0-0.4-0.1-0.5-0.3
				c-0.1-0.3,0-0.6,0.3-0.6c1.1-0.4,2.2-0.7,3.4-0.9c0.3-0.1,0.5,0.1,0.6,0.4s-0.1,0.5-0.4,0.6c-1.2,0.2-2.3,0.5-3.3,0.9
				C33.4,63.9,33.4,63.9,33.3,63.9z M40.1,62.5c-0.3,0-0.5-0.2-0.5-0.5c0-0.3,0.2-0.5,0.5-0.5c1.1-0.1,2.3-0.1,3.5-0.1
				c0.3,0,0.5,0.2,0.5,0.5c0,0.3-0.2,0.5-0.5,0.5C42.4,62.3,41.2,62.4,40.1,62.5C40.1,62.5,40.1,62.5,40.1,62.5z M47.5,62.4l-0.5,0
				c-0.3,0-0.5-0.2-0.5-0.5c0-0.3,0.2-0.5,0.5-0.5c0,0,0,0,0,0l0.5,0c1,0,2,0,3-0.1c0.3,0,0.5,0.2,0.5,0.5c0,0.3-0.2,0.5-0.5,0.5
				C49.6,62.4,48.5,62.4,47.5,62.4z M54,62c-0.2,0-0.5-0.2-0.5-0.4c0-0.3,0.1-0.5,0.4-0.6c1.2-0.2,2.3-0.4,3.4-0.7
				c0.3-0.1,0.5,0.1,0.6,0.4c0.1,0.3-0.1,0.5-0.4,0.6C56.4,61.5,55.2,61.8,54,62C54,62,54,62,54,62z M60.7,60.3
				c-0.2,0-0.4-0.1-0.5-0.3c-0.1-0.3,0-0.6,0.3-0.7c1.1-0.4,2.1-0.9,3.1-1.4c0.2-0.1,0.6,0,0.7,0.2c0.1,0.2,0,0.6-0.2,0.7
				c-1,0.5-2.1,1-3.2,1.5C60.8,60.2,60.7,60.3,60.7,60.3z M66.8,57c-0.2,0-0.3-0.1-0.4-0.2c-0.2-0.2-0.1-0.5,0.1-0.7
				c0.9-0.7,1.8-1.4,2.5-2.2c0.2-0.2,0.5-0.2,0.7,0c0.2,0.2,0.2,0.5,0,0.7c-0.8,0.8-1.7,1.6-2.7,2.3C67,56.9,66.9,57,66.8,57z
				 M71.5,52c-0.1,0-0.2,0-0.3-0.1c-0.2-0.2-0.3-0.5-0.1-0.7c0.6-0.9,1.2-1.9,1.6-3c0.1-0.3,0.4-0.4,0.7-0.3
				c0.3,0.1,0.4,0.4,0.3,0.7c-0.5,1.1-1,2.1-1.7,3.1C71.9,51.9,71.7,52,71.5,52z M74.3,45.7c0,0-0.1,0-0.1,0
				c-0.3-0.1-0.4-0.3-0.4-0.6c0.3-1.1,0.4-2.2,0.5-3.3c0-0.3,0.3-0.5,0.5-0.5c0.3,0,0.5,0.3,0.5,0.5c-0.1,1.2-0.3,2.4-0.6,3.5
				C74.7,45.5,74.5,45.7,74.3,45.7z"/>
		</g>
		<g>
			<path class="st7" d="M74.9,38.7c-0.3,0-0.5-0.2-0.5-0.5c0-0.6-0.1-1.1-0.1-1.7c0-0.3,0.2-0.5,0.4-0.6c0.3,0,0.5,0.2,0.6,0.4
				c0.1,0.6,0.1,1.2,0.1,1.8C75.4,38.5,75.2,38.7,74.9,38.7C74.9,38.7,74.9,38.7,74.9,38.7z"/>
		</g>
	</g>
	<path class="st7" d="M75.2,33.5l1.1-1.1c0.2-0.2,0.2-0.5,0-0.7s-0.5-0.2-0.7,0l-1.1,1.1l-1.1-1.1c-0.2-0.2-0.5-0.2-0.7,0
		s-0.2,0.5,0,0.7l1.1,1.1l-1.1,1.1c-0.2,0.2-0.2,0.5,0,0.7c0.1,0.1,0.2,0.1,0.4,0.1c0.1,0,0.3,0,0.4-0.1l1.1-1.1l1.1,1.1
		c0.1,0.1,0.2,0.1,0.4,0.1s0.3,0,0.4-0.1c0.2-0.2,0.2-0.5,0-0.7L75.2,33.5z"/>
	<g>
		<path class="st7" d="M24.1,80.9c-1.9,0-3.5-1.6-3.5-3.5s1.5-3.5,3.5-3.5s3.5,1.6,3.5,3.5C27.6,79.3,26,80.9,24.1,80.9z M24.1,75
			c-1.3,0-2.4,1.1-2.4,2.4s1.1,2.4,2.4,2.4c1.3,0,2.4-1.1,2.4-2.4S25.5,75,24.1,75z"/>
	</g>
	<g>
		<path class="st7" d="M54.2,87.9c-2,0-3.5-0.7-4.1-1.9c-1.4-3.2-1.6-3.4-5-1.9c-2.5,1.1-3.6,0.4-4,0c-0.7-0.9-0.4-2.5,0.9-4.4l0,0
			c0.6-0.9,0.9-2,1.2-3.2c1-3.8,2.1-8.2,15.3-8.3c9.4-0.1,13.2-2.9,15.4-4.6c1.8-1.3,2.9-2.2,4.8,0.3c2.5,3.3,0.3,5.4-1.3,6.9
			c-1.1,1.1-1.7,1.8-1.5,2.4c0.1,0.3,0.1,0.7,0,1c-0.5,1-2.2,1.5-4.5,2.2c-3.4,1-7.6,2.3-8.2,5.3c-0.7,3.7-4.7,5.8-8,6.2
			C54.9,87.9,54.5,87.9,54.2,87.9z M47.9,82.1c1.4,0,2.1,1.1,3.1,3.4c0.5,1,2.1,1.5,4.2,1.3c3.1-0.4,6.5-2.3,7.2-5.4
			c0.7-3.6,5.3-4.9,8.9-6.1c1.8-0.5,3.6-1.1,3.9-1.7c0-0.1,0-0.1,0-0.2c-0.5-1.4,0.6-2.5,1.7-3.5c1.6-1.6,3.1-3,1.2-5.6
			c-1.3-1.7-1.7-1.4-3.4-0.1c-2.4,1.8-6.3,4.8-16,4.8c-12.4,0.1-13.4,3.9-14.3,7.5c-0.3,1.2-0.6,2.5-1.4,3.5l0,0
			c-1.1,1.6-1.3,2.7-1,3.2c0.3,0.3,1.2,0.5,2.8-0.3C46.1,82.4,47.1,82.1,47.9,82.1z"/>
	</g>
	<g>
		<path class="st7" d="M47.3,77.3C47.3,77.3,47.2,77.3,47.3,77.3c-0.3,0-0.5-0.3-0.5-0.6c0.1-0.8,0.9-2.3,3.1-2.2
			c0.3,0,0.5,0.2,0.5,0.5s-0.3,0.5-0.5,0.5c0,0-0.1,0-0.1,0c-1.7,0-1.9,1.2-1.9,1.3C47.7,77.1,47.5,77.3,47.3,77.3z"/>
	</g>
	<g>
		<path class="st7" d="M60.8,73.6C60.7,73.6,60.7,73.6,60.8,73.6c-0.3,0-0.5-0.3-0.5-0.6c0.1-0.8,0.9-2.3,3.1-2.2
			c0.3,0,0.5,0.2,0.5,0.5c0,0.3-0.2,0.5-0.5,0.5c0,0,0,0,0,0c0,0-0.1,0-0.1,0c-1.7,0-1.9,1.2-1.9,1.3C61.2,73.4,61,73.6,60.8,73.6z"
			/>
	</g>
	<g>
		<path class="st7" d="M71.1,72.7C71.1,72.7,71.1,72.7,71.1,72.7c-0.3,0-0.5-0.3-0.5-0.6c0.1-0.8,0.9-2.3,3.1-2.2
			c0.3,0,0.5,0.2,0.5,0.5s-0.3,0.5-0.5,0.5c0,0-0.1,0-0.1,0c-1.7,0-1.9,1.2-1.9,1.3C71.6,72.5,71.4,72.7,71.1,72.7z"/>
	</g>
	<g>
		<path class="st7" d="M55.4,83.5C55.4,83.5,55.4,83.5,55.4,83.5c-0.3,0-0.5-0.3-0.5-0.6c0.1-0.8,0.9-2.3,3.1-2.2
			c0.3,0,0.5,0.2,0.5,0.5s-0.2,0.5-0.5,0.5c0,0-0.1,0-0.1,0c-1.7,0-1.9,1.2-1.9,1.3C55.9,83.3,55.7,83.5,55.4,83.5z"/>
	</g>
</g>
</svg>
