<?xml version="1.0" encoding="utf-8"?>
<!-- Generator: Adobe Illustrator 20.1.0, SVG Export Plug-In . SVG Version: 6.00 Build 0)  -->
<svg version="1.1" id="Layer_1" xmlns="http://www.w3.org/2000/svg" xmlns:xlink="http://www.w3.org/1999/xlink" x="0px" y="0px"
	 viewBox="0 0 100 100" style="enable-background:new 0 0 100 100;" xml:space="preserve">
<style type="text/css">
	.st0{display:none;fill:#F68C43;}
	.st1{display:none;fill:#F0566F;}
	.st2{display:none;fill:#FEE36F;}
	.st3{fill:#136296;}
</style>
<g>
	<polygon class="st0" points="12.6,94.5 29.9,40.1 47.2,94.5 	"/>
	<polygon class="st1" points="29.9,40.1 70.1,40.1 87.4,94.5 47.2,94.5 	"/>
	<path class="st2" d="M70.1,40.1l7.1,22.3c10.2-4.7,17.3-15.1,17.3-27.1c0-16.5-13.4-29.8-29.8-29.8S34.8,18.9,34.8,35.3
		c0,1.6,0.1,3.2,0.4,4.8C35.2,40.1,70.1,40.1,70.1,40.1z"/>
	<path class="st3" d="M94.5,94h-6.8l-10-31.3C88.3,57.7,95,47,95,35.3C95,18.6,81.4,5,64.7,5S34.3,18.6,34.3,35.3
		c0,1.4,0.1,2.9,0.3,4.3h-4.7c0,0-0.1,0-0.1,0c0,0,0,0,0,0c0,0,0,0,0,0c0,0,0,0-0.1,0c0,0,0,0,0,0c0,0,0,0,0,0c0,0,0,0,0,0
		c0,0,0,0,0,0c0,0,0,0,0,0c0,0,0,0,0,0.1c0,0,0,0,0,0.1c0,0,0,0,0,0L12.3,94H5.5C5.2,94,5,94.2,5,94.5S5.2,95,5.5,95h7.1h34.6h40.2
		h7.1c0.3,0,0.5-0.2,0.5-0.5S94.8,94,94.5,94z M29.4,94H13.3l16.1-50.6V94z M64.7,6C80.8,6,94,19.2,94,35.3
		c0,11.2-6.5,21.5-16.5,26.4L70.6,40c-0.1-0.2-0.3-0.4-0.5-0.4H35.7c-0.2-1.4-0.3-2.9-0.3-4.3C35.3,19.2,48.5,6,64.7,6z M30.4,94
		V43.4l9.4,29.7L46.5,94L30.4,94L30.4,94z M47.6,94l-17-53.3h4.6h34.5l7,21.9l0,0l10,31.4H47.6z"/>
	<g>
		<path class="st3" d="M35.3,42.4c-0.1-0.3-0.4-0.4-0.6-0.3c-0.3,0.1-0.4,0.4-0.3,0.6l0.6,1.7c0.1,0.2,0.3,0.3,0.5,0.3
			c0.1,0,0.1,0,0.2,0c0.3-0.1,0.4-0.4,0.3-0.6L35.3,42.4z"/>
		<path class="st3" d="M43.6,68.1c-0.1-0.3-0.4-0.4-0.6-0.3c-0.3,0.1-0.4,0.4-0.3,0.6c0.4,1.2,0.7,2.3,1.1,3.4
			c0.1,0.2,0.3,0.4,0.5,0.4c0.1,0,0.1,0,0.2,0c0.3-0.1,0.4-0.4,0.3-0.6C44.4,70.4,44,69.3,43.6,68.1z"/>
		<path class="st3" d="M41.4,61.3c-0.1-0.3-0.4-0.4-0.6-0.3c-0.3,0.1-0.4,0.4-0.3,0.6l1.1,3.4c0.1,0.2,0.3,0.4,0.5,0.4
			c0.1,0,0.1,0,0.2,0c0.3-0.1,0.4-0.4,0.3-0.6L41.4,61.3z"/>
		<path class="st3" d="M39.2,54.4c-0.1-0.3-0.4-0.4-0.6-0.3c-0.3,0.1-0.4,0.4-0.3,0.6l1.1,3.4c0.1,0.2,0.3,0.3,0.5,0.3
			c0.1,0,0.1,0,0.2,0c0.3-0.1,0.4-0.4,0.3-0.6L39.2,54.4z"/>
		<path class="st3" d="M37,47.5c-0.1-0.3-0.4-0.4-0.6-0.3c-0.3,0.1-0.4,0.4-0.3,0.6l1.1,3.4c0.1,0.2,0.3,0.3,0.5,0.3
			c0.1,0,0.1,0,0.2,0c0.3-0.1,0.4-0.4,0.3-0.6L37,47.5z"/>
		<path class="st3" d="M45.8,75c-0.1-0.3-0.4-0.4-0.6-0.3c-0.3,0.1-0.4,0.4-0.3,0.6c0.4,1.2,0.7,2.3,1.1,3.4
			c0.1,0.2,0.3,0.4,0.5,0.4c0,0,0.1,0,0.2,0c0.3-0.1,0.4-0.4,0.3-0.6C46.6,77.3,46.2,76.2,45.8,75z"/>
		<path class="st3" d="M49,85.4c-0.3-1.1-0.7-2.2-1-3.5c-0.1-0.3-0.4-0.4-0.6-0.3c-0.3,0.1-0.4,0.4-0.3,0.6c0.4,1.2,0.7,2.4,1,3.4
			c0.1,0.2,0.3,0.4,0.5,0.4c0,0,0.1,0,0.1,0C49,85.9,49.1,85.6,49,85.4z"/>
		<path class="st3" d="M51.8,90.1h-1.4c-0.1-0.4-0.2-0.8-0.4-1.3c-0.1-0.3-0.4-0.4-0.6-0.4c-0.3,0.1-0.4,0.4-0.4,0.6
			c0.2,0.7,0.3,1.2,0.5,1.7c0.1,0.2,0.3,0.4,0.5,0.4h1.8c0.3,0,0.5-0.2,0.5-0.5S52,90.1,51.8,90.1z"/>
		<path class="st3" d="M77.5,90.1h-3.2c-0.3,0-0.5,0.2-0.5,0.5s0.2,0.5,0.5,0.5h3.2c0.3,0,0.5-0.2,0.5-0.5S77.8,90.1,77.5,90.1z"/>
		<path class="st3" d="M71.1,90.1h-3.2c-0.3,0-0.5,0.2-0.5,0.5s0.2,0.5,0.5,0.5h3.2c0.3,0,0.5-0.2,0.5-0.5S71.4,90.1,71.1,90.1z"/>
		<path class="st3" d="M58.2,90.1H55c-0.3,0-0.5,0.2-0.5,0.5s0.2,0.5,0.5,0.5h3.2c0.3,0,0.5-0.2,0.5-0.5S58.5,90.1,58.2,90.1z"/>
		<path class="st3" d="M64.7,90.1h-3.2c-0.3,0-0.5,0.2-0.5,0.5s0.2,0.5,0.5,0.5h3.2c0.3,0,0.5-0.2,0.5-0.5S64.9,90.1,64.7,90.1z"/>
		<path class="st3" d="M82.5,90.1h-1.8c-0.3,0-0.5,0.2-0.5,0.5s0.2,0.5,0.5,0.5h1.8c0.3,0,0.5-0.2,0.5-0.5S82.8,90.1,82.5,90.1z"/>
	</g>
</g>
</svg>
